<?xml version="1.0" standalone="no"?>
<!DOCTYPE svg PUBLIC "-//W3C//DTD SVG 20010904//EN"
 "http://www.w3.org/TR/2001/REC-SVG-20010904/DTD/svg10.dtd">
<svg version="1.0" xmlns="http://www.w3.org/2000/svg"
 width="2072.000000pt" height="433.000000pt" viewBox="0 0 2072.000000 433.000000"
 preserveAspectRatio="xMidYMid meet">

<g transform="translate(0.000000,433.000000) scale(0.100000,-0.100000)"
fill="#000000" stroke="none">
<path d="M4922 3773 l3 -98 203 -3 c199 -2 203 -3 211 -25 5 -12 5 -44 0 -72
-13 -83 -11 -285 4 -287 54 -7 587 -1 589 7 0 6 2 49 3 98 l3 87 -198 0 -197
0 -5 93 c-3 50 -4 138 -3 195 l1 102 -309 0 -308 0 3 -97z"/>
<path d="M4531 3500 l1 -300 188 0 c104 0 191 -4 194 -8 3 -5 6 -97 7 -205 1
-162 4 -197 16 -201 8 -3 53 -6 99 -6 l84 0 0 289 c0 159 3 296 6 305 5 14
-17 16 -193 18 l-198 3 -3 203 -2 202 -101 0 -100 0 2 -300z"/>
<path d="M6158 3285 l-3 -210 -105 -2 c-58 -1 -144 -2 -192 -2 l-88 -1 0 -295
0 -295 99 0 99 0 6 43 c3 23 6 108 5 188 -1 80 1 151 5 157 5 9 63 12 190 12
l183 0 6 38 c3 20 6 157 7 304 l1 267 -106 3 -105 3 -2 -210z"/>
<path d="M3670 3441 c0 -21 3 -66 6 -100 l7 -61 197 0 c178 0 198 -2 213 -18
10 -10 15 -21 12 -24 -4 -4 -9 -367 -6 -425 1 -9 74 -12 295 -11 266 0 295 2
299 17 2 9 5 53 6 98 l2 83 -203 2 -203 3 0 238 0 237 -312 0 -313 0 0 -39z"/>
<path d="M1942 3073 l-193 -3 3 -132 3 -132 68 3 67 2 -3 -818 c-1 -450 -5
-826 -7 -836 -5 -17 6 -18 145 -18 117 0 149 3 146 13 -17 58 -20 204 -21
1011 0 504 -3 916 -7 915 -5 -2 -95 -4 -201 -5z"/>
<path d="M759 3068 c0 -2 -3 -58 -5 -125 l-4 -123 53 0 c30 0 56 -2 59 -5 8
-8 -15 -140 -92 -520 -39 -192 -84 -420 -100 -505 -89 -456 -132 -640 -151
-640 -5 0 -9 -3 -9 -7 0 -5 74 -8 165 -8 91 0 165 1 165 1 0 1 -6 13 -14 28
-15 29 -7 106 20 188 l15 47 168 3 c230 4 222 6 237 -67 24 -109 28 -154 14
-170 -7 -9 -11 -17 -9 -20 6 -5 319 -11 319 -6 0 3 -6 12 -14 20 -17 20 -40
130 -221 1041 -80 404 -153 765 -161 803 l-16 67 -209 0 c-115 0 -209 -1 -210
-2z m306 -750 c14 -61 125 -634 125 -645 0 -10 -31 -13 -140 -13 -114 0 -140
3 -140 14 0 8 24 137 54 288 30 150 57 293 60 317 4 24 9 48 12 53 10 15 24 8
29 -14z"/>
<path d="M8382 3062 l-492 -2 2 -357 3 -357 378 3 377 3 0 -465 0 -465 -38 -4
c-22 -2 -128 -3 -238 -3 l-199 0 -8 90 c-4 49 -5 100 -2 113 5 22 10 23 63 20
31 -2 64 -7 72 -11 13 -6 15 14 15 152 0 156 0 158 -20 145 -15 -11 -64 -14
-207 -14 l-188 0 0 -363 c0 -312 -2 -366 -16 -385 l-15 -22 530 0 c291 0 536
-3 545 -6 9 -3 16 -2 16 4 0 5 -9 12 -20 15 -20 5 -20 14 -20 734 l0 728 -380
-3 -380 -4 0 96 0 96 370 0 371 0 -3 132 c-2 78 -7 132 -13 132 -5 1 -232 0
-503 -2z"/>
<path d="M9102 2943 l3 -128 45 -5 45 -5 0 -823 c0 -720 -2 -824 -15 -832 -10
-6 179 -10 520 -9 489 0 533 1 513 16 l-23 15 0 929 c0 918 0 929 20 941 11 7
20 16 20 20 0 5 -76 8 -170 8 -153 0 -198 -7 -155 -24 13 -5 15 -105 15 -821
l0 -815 -227 2 -228 3 -3 799 c-2 698 0 802 13 822 8 13 15 26 15 29 0 3 -88
5 -196 5 l-195 0 3 -127z"/>
<path d="M10382 2943 l3 -128 53 -3 52 -3 0 -835 0 -834 130 0 130 0 0 532 c0
296 4 528 9 523 8 -9 77 -224 208 -645 30 -96 71 -227 92 -290 l37 -115 109 0
109 0 97 295 c158 478 206 631 219 698 8 37 17 61 24 59 8 -3 12 -154 14 -520
l2 -517 114 0 c63 0 120 2 128 5 11 4 13 153 13 833 -1 455 -2 882 -3 950 l-2
122 -125 0 c-114 0 -125 -2 -135 -20 -15 -28 -190 -563 -229 -700 -55 -194
-215 -664 -227 -667 -7 -2 -23 34 -38 84 -15 48 -41 133 -58 188 -17 55 -75
240 -130 410 -55 171 -122 382 -150 470 -27 88 -55 176 -63 195 l-13 35 -186
3 -187 2 3 -127z"/>
<path d="M12070 2940 l0 -130 55 0 55 0 2 -807 c1 -445 2 -819 2 -833 l1 -25
127 -3 128 -3 2 532 3 531 32 -88 c17 -49 52 -156 78 -239 97 -312 228 -710
237 -722 7 -9 42 -13 109 -13 83 0 100 3 108 18 12 23 181 548 236 732 87 292
98 319 110 280 4 -13 6 -244 4 -514 l-4 -491 127 -3 128 -3 2 956 3 955 -130
0 -131 0 -156 -482 c-87 -266 -174 -539 -194 -608 -43 -146 -92 -291 -104
-304 -8 -8 -86 220 -160 464 -29 95 -116 370 -248 775 l-48 150 -187 3 -187 2
0 -130z"/>
<path d="M14020 3028 c0 -24 -3 -82 -7 -130 l-6 -88 62 0 61 0 -6 -42 c-4 -24
-31 -162 -61 -308 -29 -146 -94 -467 -144 -715 -102 -509 -114 -563 -136 -587
-15 -17 -7 -18 156 -18 157 0 171 1 157 16 -20 19 -19 66 2 164 l17 75 196 3
197 2 10 -42 c6 -24 16 -76 23 -117 12 -69 11 -75 -6 -87 -16 -12 4 -14 149
-14 134 0 166 3 158 13 -19 22 -49 164 -212 975 -88 442 -167 834 -176 872
l-16 70 -209 0 -209 0 0 -42z m314 -730 c4 -29 32 -181 63 -336 47 -237 54
-285 42 -293 -8 -4 -70 -7 -139 -6 l-125 2 3 30 c6 55 102 549 118 603 8 28
19 52 23 52 5 0 11 -24 15 -52z"/>
<path d="M14899 2955 c-1 -63 -2 -121 -3 -127 -1 -9 18 -14 57 -16 l57 -3 -2
-820 c-3 -799 -4 -821 -22 -835 -17 -12 0 -14 146 -14 l167 0 -15 28 c-11 22
-14 97 -14 412 0 229 4 380 9 375 5 -6 35 -59 66 -120 32 -60 94 -175 138
-255 44 -80 109 -200 144 -268 63 -119 64 -123 49 -147 l-16 -25 184 0 184 0
-38 58 c-20 31 -120 210 -220 397 -101 187 -223 413 -271 502 -49 89 -89 169
-89 178 0 13 31 15 250 15 l250 0 0 390 0 390 -505 0 -505 0 -1 -115z m761
-274 c0 -125 -1 -129 -22 -135 -13 -3 -101 -6 -195 -6 l-173 0 0 128 c0 71 3
132 7 135 3 4 91 7 195 7 l188 0 0 -129z"/>
<path d="M16179 3063 c0 -5 -2 -63 -4 -130 l-3 -122 71 -3 72 -3 0 -822 c0
-810 0 -822 -20 -838 -20 -16 -19 -16 5 -11 14 3 95 6 180 6 132 0 151 2 130
13 l-25 13 -3 952 -2 952 -200 0 c-110 0 -200 -3 -201 -7z"/>
<path d="M16810 2850 l0 -220 130 0 130 0 2 53 c1 28 3 61 4 72 1 11 2 28 3
38 1 16 19 17 234 17 129 0 236 -3 239 -6 4 -3 -18 -47 -47 -97 -49 -85 -250
-444 -566 -1011 l-128 -228 -3 -147 c-2 -80 -7 -154 -12 -163 -8 -17 23 -18
574 -18 l581 0 -20 26 c-20 25 -21 39 -21 236 l0 209 -127 -3 -128 -3 -3 -102
-3 -103 -269 0 c-147 0 -275 3 -284 6 -17 7 -21 -2 164 329 666 1188 638 1136
641 1171 1 16 1 59 1 97 l-2 67 -545 0 -545 0 0 -220z"/>
<path d="M18100 2940 c0 -97 3 -130 13 -131 6 0 35 -1 62 -2 l50 -2 3 -814 c2
-743 1 -816 -14 -832 -16 -18 -2 -19 382 -21 220 -2 400 -2 402 -1 2 1 -5 14
-15 29 -14 21 -18 51 -20 133 l-3 106 -229 3 -229 2 -4 58 c-1 31 -2 225 0
430 l2 372 238 0 237 0 -2 147 c-1 82 -2 153 -3 158 0 6 -9 0 -20 -13 -18 -22
-26 -23 -233 -28 l-214 -6 -6 23 c-9 31 -9 222 -1 243 5 14 36 16 244 16 l238
0 1 130 2 130 -441 0 -440 0 0 -130z"/>
<path d="M19160 2940 l0 -129 55 -3 56 -3 1 -720 c1 -973 2 -933 -19 -938 -10
-3 63 -5 162 -5 164 0 177 1 148 14 l-33 14 0 378 c0 333 5 421 23 402 3 -3
19 -34 37 -70 39 -77 250 -471 260 -485 26 -35 111 -218 106 -230 -2 -7 -15
-15 -28 -18 -13 -2 61 -5 165 -6 103 0 187 1 187 4 0 2 -10 21 -22 42 -28 51
-331 611 -430 798 -44 83 -98 182 -119 221 -22 39 -36 74 -32 77 3 4 118 7
255 7 l248 0 0 390 0 390 -510 0 -510 0 0 -130z m760 -259 l0 -129 -142 -7
c-79 -4 -165 -5 -193 -3 l-50 3 -3 118 c-2 66 -1 125 2 133 4 11 42 14 196 14
l190 0 0 -129z"/>
<path d="M3708 2849 l-3 -201 -190 1 c-105 1 -198 -1 -206 -4 -14 -5 -16 -43
-18 -311 l-1 -304 100 0 100 0 2 33 c1 17 2 111 2 207 l1 175 208 3 207 2 0
298 0 297 -100 3 -100 3 -2 -202z"/>
<path d="M5321 2835 c1 -113 -1 -208 -4 -211 -3 -3 -88 -5 -190 -4 l-185 0 -6
-172 c-4 -95 -6 -201 -5 -235 l2 -63 93 0 c51 0 95 3 98 8 2 4 5 59 7 122 1
63 4 121 7 128 3 9 51 12 192 12 162 0 189 2 194 16 3 9 6 148 6 310 l0 294
-105 0 -105 0 1 -205z"/>
<path d="M4130 2546 c0 -70 3 -95 14 -99 7 -3 98 -6 201 -6 140 -1 191 -4 197
-13 4 -7 8 -71 8 -143 l0 -130 100 3 100 3 0 240 0 239 -310 0 -310 0 0 -94z"/>
<path d="M6158 2444 l-3 -197 -242 2 -243 2 0 -100 0 -101 345 0 345 0 0 195
0 195 159 0 c184 0 171 -10 171 123 l0 77 -265 0 -265 0 -2 -196z"/>
<path d="M6560 2043 l2 -208 -196 -3 -196 -2 0 -301 0 -300 98 3 c68 2 97 7
98 16 1 6 2 95 3 197 l1 185 195 0 195 0 0 279 c0 153 3 291 6 307 l5 29 -106
3 -106 3 1 -208z"/>
<path d="M3708 2038 l-3 -193 -167 -3 -167 -2 2 -98 2 -97 245 -3 c135 -1 255
0 268 3 22 5 22 7 22 190 0 101 4 186 9 189 5 3 112 6 239 6 l230 1 4 92 c3
51 3 94 1 97 -3 3 -157 6 -344 8 l-339 3 -2 -193z"/>
<path d="M5310 1895 l0 -235 304 0 304 0 6 23 c3 12 6 57 6 100 l0 78 -199 -2
c-110 -1 -205 2 -211 6 -9 6 -11 42 -8 136 l5 129 -104 0 -103 0 0 -235z"/>
<path d="M4533 1588 l2 -343 89 -3 c65 -2 92 1 98 10 4 7 8 118 8 245 l0 233
198 2 197 3 3 98 3 97 -300 0 -300 0 2 -342z"/>
<path d="M4083 1611 c5 -153 4 -201 -6 -204 -6 -3 -95 -2 -197 1 l-185 5 -3
-312 c-3 -255 -1 -311 10 -312 46 -2 184 3 188 8 3 2 5 80 6 171 0 92 1 184 2
205 l2 37 194 0 194 0 1 300 2 300 -107 0 -107 0 6 -199z"/>
<path d="M4939 1496 c-2 -2 -1 -44 2 -93 3 -48 1 -118 -3 -154 -5 -36 -7 -133
-6 -215 l3 -149 183 -3 c142 -2 182 0 182 10 0 8 4 7 10 -4 6 -9 11 -99 11
-200 1 -101 6 -189 12 -196 6 -8 39 -12 97 -12 l88 0 7 30 c4 17 5 152 3 300
l-3 270 -192 0 -193 0 0 210 0 210 -98 0 c-54 0 -101 -2 -103 -4z"/>
<path d="M5360 1395 c0 -52 1 -96 3 -97 1 -1 91 -4 200 -7 l199 -6 0 -230 c0
-165 3 -232 11 -237 7 -4 146 -8 310 -8 l299 0 -3 83 c-2 45 -1 89 2 97 3 13
-24 15 -200 17 -112 1 -206 5 -210 8 -3 4 -6 111 -6 238 l0 232 -302 3 -303 2
0 -95z"/>
<path d="M4120 996 c-3 -2 -3 -46 0 -98 l5 -93 190 0 c159 0 191 -2 197 -15 4
-8 7 -97 7 -198 l1 -182 306 2 305 3 3 98 3 98 -196 -1 c-108 0 -202 -1 -209
0 -10 0 -12 40 -10 189 l3 189 -60 4 c-95 6 -540 10 -545 4z"/>
</g>
</svg>
